<svg width="13" height="13" viewBox="0 0 13 13" fill="none" xmlns="http://www.w3.org/2000/svg">
<path d="M11.9167 7.33333H7.33333V11.9167C7.33333 12.1598 7.23676 12.3929 7.06485 12.5648C6.89294 12.7368 6.65978 12.8333 6.41667 12.8333C6.17355 12.8333 5.94039 12.7368 5.76849 12.5648C5.59658 12.3929 5.5 12.1598 5.5 11.9167V7.33333H0.916667C0.673552 7.33333 0.440394 7.23676 0.268486 7.06485C0.0965773 6.89294 0 6.65978 0 6.41667C0 6.17355 0.0965773 5.94039 0.268486 5.76849C0.440394 5.59658 0.673552 5.5 0.916667 5.5H5.5V0.916667C5.5 0.673552 5.59658 0.440394 5.76849 0.268485C5.94039 0.0965768 6.17355 0 6.41667 0C6.65978 0 6.89294 0.0965768 7.06485 0.268485C7.23676 0.440394 7.33333 0.673552 7.33333 0.916667V5.5H11.9167C12.1598 5.5 12.3929 5.59658 12.5648 5.76849C12.7368 5.94039 12.8333 6.17355 12.8333 6.41667C12.8333 6.65978 12.7368 6.89294 12.5648 7.06485C12.3929 7.23676 12.1598 7.33333 11.9167 7.33333Z" fill="white"/>
</svg>
